<svg width="24" height="24" viewBox="0 0 24 24" fill="none" xmlns="http://www.w3.org/2000/svg">
<path d="M9.07143 10.5829C9.07143 10.3068 8.84757 10.0829 8.57143 10.0829C8.29529 10.0829 8.07143 10.3068 8.07143 10.5829H9.07143ZM8.07143 18.9565C8.07143 19.2327 8.29529 19.4565 8.57143 19.4565C8.84757 19.4565 9.07143 19.2327 9.07143 18.9565H8.07143ZM12.5 10.5829C12.5 10.3068 12.2761 10.0829 12 10.0829C11.7239 10.0829 11.5 10.3068 11.5 10.5829H12.5ZM11.5 18.9565C11.5 19.2327 11.7239 19.4565 12 19.4565C12.2761 19.4565 12.5 19.2327 12.5 18.9565H11.5ZM15.9286 10.5829C15.9286 10.3068 15.7047 10.0829 15.4286 10.0829C15.1524 10.0829 14.9286 10.3068 14.9286 10.5829H15.9286ZM14.9286 18.9565C14.9286 19.2327 15.1524 19.4565 15.4286 19.4565C15.7047 19.4565 15.9286 19.2327 15.9286 18.9565H14.9286ZM7.84482 5.22061V3H6.84482V5.22061H7.84482ZM8.34482 2.5H15.6552V1.5H8.34482V2.5ZM16.1552 3V5.22061H17.1552V3H16.1552ZM8.07143 10.5829V18.9565H9.07143V10.5829H8.07143ZM11.5 10.5829V18.9565H12.5V10.5829H11.5ZM14.9286 10.5829V18.9565H15.9286V10.5829H14.9286ZM4 5.54348H20V4.54348H4V5.54348ZM20.5 6.04348V6.65217H21.5V6.04348H20.5ZM3.5 6.65217V6.04348H2.5V6.65217H3.5ZM5.14286 7.15217H4V8.15217H5.14286V7.15217ZM4.64308 7.6671L5.04267 21.0448L6.04223 21.0149L5.64263 7.63725L4.64308 7.6671ZM6.542 22.5H17.458V21.5H6.542V22.5ZM20 7.15217H18.8571V8.15217H20V7.15217ZM18.8571 7.15217H5.14286V8.15217H18.8571V7.15217ZM18.9573 21.0448L19.3569 7.6671L18.3574 7.63725L17.9578 21.0149L18.9573 21.0448ZM17.458 22.5C18.269 22.5 18.9331 21.8554 18.9573 21.0448L17.9578 21.0149C17.9497 21.2851 17.7283 21.5 17.458 21.5V22.5ZM5.04267 21.0448C5.06689 21.8554 5.73102 22.5 6.542 22.5V21.5C6.27168 21.5 6.0503 21.2851 6.04223 21.0149L5.04267 21.0448ZM4 4.54348C3.17157 4.54348 2.5 5.21505 2.5 6.04348H3.5C3.5 5.76734 3.72386 5.54348 4 5.54348V4.54348ZM7.84482 3C7.84482 2.72386 8.06868 2.5 8.34482 2.5V1.5C7.5164 1.5 6.84482 2.17157 6.84482 3H7.84482ZM20.5 6.65217C20.5 6.92832 20.2761 7.15217 20 7.15217V8.15217C20.8284 8.15217 21.5 7.4806 21.5 6.65217H20.5ZM2.5 6.65217C2.5 7.4806 3.17157 8.15217 4 8.15217V7.15217C3.72386 7.15217 3.5 6.92832 3.5 6.65217H2.5ZM15.6552 2.5C15.9313 2.5 16.1552 2.72386 16.1552 3H17.1552C17.1552 2.17157 16.4836 1.5 15.6552 1.5V2.5ZM20 5.54348C20.2761 5.54348 20.5 5.76734 20.5 6.04348H21.5C21.5 5.21505 20.8284 4.54348 20 4.54348V5.54348Z" fill="black"/>
</svg>
