<svg width="20" height="20" viewBox="0 0 20 20" fill="none" xmlns="http://www.w3.org/2000/svg">
<g clip-path="url(#clip0_3739_28364)">
<path fill-rule="evenodd" clip-rule="evenodd" d="M9.19835 5.77724C10.5861 4.38948 12.835 4.39067 14.2223 5.778C15.6099 7.16554 15.6099 9.4152 14.2223 10.8027L10.0975 14.9275C9.84903 15.176 9.44611 15.176 9.19759 14.9275C8.94907 14.679 8.94907 14.2761 9.19759 14.0276L13.3224 9.90279C14.2129 9.01227 14.2129 7.56846 13.3224 6.67795C12.4316 5.78722 10.9886 5.78689 10.0983 6.67719L10.093 6.68245L10.0878 6.68772L10.0825 6.69299L10.0772 6.69827L10.0719 6.70355L10.0667 6.70884L10.0614 6.71413L10.0561 6.71943L10.0508 6.72473L10.0455 6.73004L10.0401 6.73536L10.0348 6.74068L10.0295 6.746L10.0242 6.75133L10.0188 6.75667L10.0135 6.76201L10.0081 6.76736L10.0028 6.77271L9.99742 6.77807L9.99206 6.78343L9.98669 6.7888L9.98132 6.79418L9.97594 6.79956L9.97055 6.80494L9.96516 6.81033L9.95976 6.81573L9.95436 6.82113L9.94896 6.82654L9.94355 6.83195L9.93813 6.83737L9.93271 6.84279L9.92728 6.84822L9.92185 6.85365L9.91641 6.85909L9.91096 6.86453L9.90551 6.86998L9.90006 6.87543L9.8946 6.88089L9.88913 6.88636L9.88366 6.89183L9.87819 6.89731L9.87271 6.90279L9.86722 6.90827L9.86173 6.91376L9.85623 6.91926L9.85073 6.92476L9.84523 6.93027L9.83971 6.93578L9.8342 6.9413L9.82867 6.94682L9.82314 6.95235L9.81761 6.95788L9.81207 6.96342L9.80653 6.96897L9.80098 6.97451L9.79543 6.98007L9.78987 6.98563L9.7843 6.99119L9.77873 6.99676L9.77316 7.00234L9.76758 7.00792L9.76199 7.0135L9.7564 7.01909L9.75081 7.02469L9.7452 7.03029L9.7396 7.0359L9.73399 7.04151L9.72837 7.04712L9.72275 7.05274L9.71712 7.05837L9.71149 7.064L9.70585 7.06964L9.70021 7.07528L9.69457 7.08093L9.68891 7.08658L9.68326 7.09224L9.67759 7.0979L9.67193 7.10357L9.66625 7.10924L9.66058 7.11492L9.65489 7.1206L9.6492 7.12629L9.64351 7.13198L9.63781 7.13768L9.63211 7.14338L9.6264 7.14909L9.62069 7.1548L9.61497 7.16052L9.60925 7.16625L9.60352 7.17197L9.59779 7.17771L9.59205 7.18345L9.5863 7.18919L9.58056 7.19494L9.5748 7.20069L9.56904 7.20645L9.56328 7.21221L9.55751 7.21798L9.55174 7.22376L9.54596 7.22953L9.54018 7.23532L9.53439 7.24111L9.52859 7.2469L9.5228 7.2527L9.51699 7.2585L9.51118 7.26431L9.50537 7.27012L9.49955 7.27594L9.49373 7.28177L9.4879 7.28759L9.48207 7.29343L9.47623 7.29926L9.47039 7.30511L9.46454 7.31096L9.45869 7.31681L9.45283 7.32267L9.44697 7.32853L9.4411 7.3344L9.43522 7.34027L9.42935 7.34615L9.42347 7.35203L9.41758 7.35792L9.41169 7.36381L9.40579 7.36971L9.39989 7.37561L9.39398 7.38151L9.38807 7.38742L9.38215 7.39334L9.37623 7.39926L9.37031 7.40519L9.36437 7.41112L9.35844 7.41706L9.3525 7.423L9.34655 7.42894L9.3406 7.43489L9.33465 7.44085L9.32869 7.44681L9.32272 7.45277L9.31675 7.45874L9.31078 7.46471L9.3048 7.47069L9.29882 7.47668L9.29283 7.48267L9.28683 7.48866L9.28084 7.49466L9.27483 7.50066L9.26883 7.50667L9.26281 7.51268L9.2568 7.5187L9.25077 7.52472L9.24475 7.53075L9.23872 7.53678L9.23268 7.54282L9.22664 7.54886L9.22059 7.5549L9.21454 7.56095L9.20849 7.56701L9.20243 7.57307L9.19636 7.57913L9.19029 7.5852L9.18422 7.59127L9.17814 7.59735L9.17206 7.60344L9.16597 7.60952L9.15988 7.61562L9.15378 7.62171L9.14768 7.62782L9.14157 7.63392L9.13546 7.64003L9.12934 7.64615L9.12322 7.65227L9.1171 7.6584L9.11097 7.66453L9.10483 7.67066L9.09869 7.6768L9.09255 7.68294L9.0864 7.68909L9.08025 7.69525L9.07409 7.7014L9.06793 7.70757L9.06176 7.71373L9.05559 7.7199L9.04941 7.72608L9.04323 7.73226L9.03705 7.73845L9.03086 7.74464L9.02466 7.75083L9.01847 7.75703L9.01226 7.76323L9.00605 7.76944L8.99984 7.77565L8.99362 7.78187L8.9874 7.78809L8.98118 7.79432L8.97495 7.80055L8.96871 7.80678L8.96247 7.81302L8.95623 7.81927L8.94998 7.82552L8.94373 7.83177L8.93747 7.83803L8.93121 7.84429L8.92494 7.85056L8.91867 7.85683L8.91239 7.8631L8.90611 7.86938L8.89983 7.87567L8.89354 7.88196L8.88724 7.88825L8.88095 7.89455L8.87464 7.90085L8.86834 7.90716L8.86203 7.91347L8.85571 7.91978L8.84939 7.9261L8.84306 7.93243L8.83674 7.93876L8.8304 7.94509L8.82406 7.95143L8.81772 7.95777L8.81138 7.96412L8.80502 7.97047L8.79867 7.97683L8.79231 7.98319L8.78594 7.98955L8.77958 7.99592L8.7732 8.00229L8.76682 8.00867L8.76044 8.01505L8.75406 8.02144L8.74767 8.02783L8.74127 8.03422L8.73487 8.04062L8.72847 8.04703L8.72206 8.05343L8.71565 8.05985L8.70923 8.06626L8.70281 8.07268L8.69639 8.07911L8.68996 8.08554L8.68352 8.09197L8.67709 8.09841L8.67064 8.10485L8.6642 8.1113L8.65775 8.11775L8.65129 8.1242L8.64483 8.13066L8.63837 8.13713L8.6319 8.1436L8.62543 8.15007L8.61895 8.15654L8.61247 8.16302L8.60598 8.16951L8.59949 8.176L8.593 8.18249L8.5865 8.18899L8.58 8.19549L8.5735 8.202L8.56699 8.20851L8.56047 8.21502L8.55395 8.22154L8.54743 8.22807L8.5409 8.23459L8.53437 8.24112L8.52783 8.24766L8.52129 8.2542L8.51475 8.26074L8.5082 8.26729L8.50165 8.27384L8.49509 8.2804L8.48853 8.28696L8.48197 8.29353L8.4754 8.30009L8.46883 8.30667L8.46225 8.31325L8.45567 8.31983L8.44908 8.32641L8.44249 8.333L8.4359 8.3396L8.4293 8.34619L8.4227 8.3528L8.41609 8.3594L8.40948 8.36601L8.40287 8.37263L8.39625 8.37924L8.38963 8.38587L8.383 8.39249L8.37637 8.39912L8.36974 8.40576L8.3631 8.4124L8.35645 8.41904L8.34981 8.42569L8.34316 8.43234L8.3365 8.43899L8.32984 8.44565L8.32318 8.45231L8.31651 8.45898L8.30984 8.46565L8.30317 8.47233L8.29649 8.47901L8.2898 8.48569L8.28312 8.49238L8.27643 8.49907L8.26973 8.50576L8.26303 8.51246L8.25633 8.51916L8.24962 8.52587L8.24291 8.53258L8.2362 8.5393L8.22948 8.54602L8.22275 8.55274L8.21603 8.55947L8.2093 8.5662L8.20256 8.57293L8.19582 8.57967L8.18908 8.58641L8.18233 8.59316L8.17558 8.59991L8.16883 8.60667L8.16207 8.61342L8.15531 8.62019L8.14854 8.62695L8.14177 8.63372L8.135 8.6405L8.12822 8.64727L8.12144 8.65406L8.11465 8.66084L8.10786 8.66763L8.10107 8.67442L8.09427 8.68122L8.08747 8.68802L8.08067 8.69483L8.07386 8.70164L8.06704 8.70845L8.06023 8.71527L8.05341 8.72209L8.04658 8.72891L8.03975 8.73574L8.03292 8.74257L8.02609 8.74941L8.01925 8.75625L8.0124 8.76309L8.00556 8.76994L7.99871 8.77679L7.99185 8.78364L7.98499 8.7905L7.97813 8.79736L7.97126 8.80423L7.96439 8.8111L7.95752 8.81797L7.95064 8.82485L7.94376 8.83173L7.93688 8.83862L7.92999 8.84551L7.9231 8.8524L7.9162 8.85929L7.9093 8.86619L7.9024 8.8731L7.89549 8.88001L7.88858 8.88692L7.88166 8.89383L7.87474 8.90075L7.86782 8.90767L7.8609 8.9146L7.85397 8.92153L7.84703 8.92846L7.8401 8.9354L7.83315 8.94234L7.82621 8.94928L7.81926 8.95623L7.81231 8.96318L7.80536 8.97014L7.7984 8.9771L7.79143 8.98406L7.78447 8.99103L7.7775 8.998L7.77052 9.00497L7.76355 9.01195L7.75656 9.01893L7.74958 9.02591L7.74259 9.0329L7.7356 9.03989L7.72861 9.04689L7.72161 9.05389L7.7146 9.06089L7.7076 9.0679L7.70059 9.07491L7.69357 9.08192L7.68656 9.08894L7.67954 9.09596L7.67251 9.10298L7.66548 9.11001L7.65845 9.11704L7.65142 9.12408L7.64438 9.13111L7.63734 9.13816L7.63029 9.1452L7.62324 9.15225L7.61619 9.1593L7.60914 9.16636L7.60208 9.17342L7.59501 9.18048L7.58795 9.18755L7.58088 9.19462L7.5738 9.20169L7.56673 9.20877L7.55964 9.21585L7.55256 9.22293L7.54547 9.23002L7.53838 9.23711L7.53129 9.24421L7.52419 9.2513L7.51709 9.25841L7.50998 9.26551L7.50287 9.27262L7.49576 9.27973L7.48865 9.28685L7.48153 9.29396L7.47441 9.30109L7.46728 9.30821L7.46015 9.31534L7.45302 9.32247L7.44588 9.32961L7.43874 9.33675L7.4316 9.34389L7.42446 9.35104L7.41731 9.35819L7.41015 9.36534L7.403 9.3725L7.39584 9.37966L7.38868 9.38682L7.38151 9.39399L7.37434 9.40115L7.36717 9.40833L7.35999 9.4155L7.35281 9.42268L7.34563 9.42987L7.33844 9.43705L7.33125 9.44424L7.32406 9.45144L7.31686 9.45863L7.30966 9.46583L7.30246 9.47304L7.29525 9.48024L7.28804 9.48745L7.28083 9.49467L7.27361 9.50188L7.26639 9.5091L7.25917 9.51632L7.25194 9.52355L7.24471 9.53078L7.23748 9.53801L7.23025 9.54525L7.22301 9.55249L7.21576 9.55973L7.20852 9.56698L7.20127 9.57422L7.19402 9.58148L7.18676 9.58873L7.1795 9.59599L7.17224 9.60325L7.16498 9.61052L7.15771 9.61779L7.15044 9.62506L7.14316 9.63233L7.13588 9.63961L7.1286 9.64689L7.12132 9.65418L7.11403 9.66147L7.10674 9.66876L7.09944 9.67605L7.09215 9.68335L7.08485 9.69065L7.07754 9.69795L7.07024 9.70526L7.06293 9.71257L7.05561 9.71988L7.0483 9.7272L7.04098 9.73452L7.03366 9.74184L7.02633 9.74916L7.019 9.75649L7.01167 9.76382L7.00433 9.77116L6.997 9.7785L6.98966 9.78584L6.98231 9.79318L6.97496 9.80053L6.96761 9.80788L6.96026 9.81523L6.9529 9.82259L6.94554 9.82995L6.93818 9.83731L6.93082 9.84468L6.92345 9.85205L6.91607 9.85942L6.9087 9.86679L6.90132 9.87417L6.89394 9.88155L6.88656 9.88894L6.87917 9.89632L6.87178 9.90371L6.86439 9.91111L6.85699 9.9185L6.84959 9.9259L6.84219 9.93331L6.83478 9.94071L6.82737 9.94812L6.81996 9.95553L6.81255 9.96294L6.80513 9.97036L6.79771 9.97778L5.76652 11.009C5.21771 11.5578 5.21771 12.4476 5.76652 12.9964C6.31532 13.5452 7.20511 13.5452 7.75392 12.9964L8.78511 11.9652C8.78907 11.9612 8.79307 11.9573 8.79711 11.9535L11.6725 9.07809C11.8796 8.87099 11.8796 8.53522 11.6725 8.32813C11.4654 8.12103 11.1296 8.12103 10.9225 8.32813L7.41647 11.8342C7.16796 12.0827 6.76504 12.0827 6.51652 11.8342C6.268 11.5857 6.26801 11.1828 6.51652 10.9342L10.0226 7.42817C10.7267 6.72405 11.8683 6.72405 12.5725 7.42817C13.2766 8.1323 13.2766 9.27392 12.5725 9.97804L9.68511 12.8654C9.68115 12.8694 9.67715 12.8733 9.67312 12.8771L8.65387 13.8963C7.60803 14.9422 5.9124 14.9422 4.86656 13.8963C3.82073 12.8505 3.82073 11.1549 4.86656 10.109L5.89776 9.07783L5.90518 9.07041L5.9126 9.06299L5.92001 9.05558L5.92742 9.04817L5.93483 9.04076L5.94223 9.03335L5.94964 9.02595L5.95704 9.01855L5.96443 9.01115L5.97183 9.00376L5.97922 8.99637L5.9866 8.98898L5.99399 8.9816L6.00137 8.97422L6.00875 8.96684L6.01612 8.95947L6.02349 8.95209L6.03086 8.94472L6.03823 8.93736L6.04559 8.93L6.05295 8.92264L6.06031 8.91528L6.06766 8.90793L6.07501 8.90058L6.08236 8.89323L6.0897 8.88588L6.09704 8.87854L6.10438 8.87121L6.11172 8.86387L6.11905 8.85654L6.12638 8.84921L6.1337 8.84188L6.14102 8.83456L6.14834 8.82724L6.15566 8.81993L6.16297 8.81261L6.17028 8.8053L6.17759 8.798L6.18489 8.79069L6.19219 8.78339L6.19949 8.7761L6.20678 8.7688L6.21407 8.76151L6.22136 8.75422L6.22865 8.74694L6.23593 8.73966L6.24321 8.73238L6.25048 8.7251L6.25775 8.71783L6.26502 8.71056L6.27229 8.7033L6.27955 8.69604L6.28681 8.68878L6.29406 8.68152L6.30132 8.67427L6.30856 8.66702L6.31581 8.65978L6.32305 8.65253L6.33029 8.64529L6.33753 8.63806L6.34476 8.63083L6.35199 8.6236L6.35922 8.61637L6.36644 8.60915L6.37366 8.60193L6.38087 8.59471L6.38809 8.5875L6.3953 8.58029L6.4025 8.57308L6.40971 8.56588L6.41691 8.55868L6.4241 8.55148L6.4313 8.54429L6.43849 8.5371L6.44567 8.52991L6.45286 8.52273L6.46004 8.51555L6.46721 8.50837L6.47439 8.5012L6.48155 8.49403L6.48872 8.48686L6.49588 8.4797L6.50304 8.47254L6.5102 8.46539L6.51735 8.45823L6.5245 8.45108L6.53165 8.44394L6.53879 8.43679L6.54593 8.42966L6.55307 8.42252L6.5602 8.41539L6.56733 8.40826L6.57445 8.40113L6.58158 8.39401L6.58869 8.38689L6.59581 8.37978L6.60292 8.37267L6.61003 8.36556L6.61713 8.35845L6.62424 8.35135L6.63133 8.34425L6.63843 8.33716L6.64552 8.33007L6.65261 8.32298L6.65969 8.3159L6.66677 8.30881L6.67385 8.30174L6.68092 8.29466L6.68799 8.28759L6.69506 8.28053L6.70212 8.27346L6.70918 8.2664L6.71624 8.25935L6.72329 8.2523L6.73034 8.24525L6.73738 8.2382L6.74443 8.23116L6.75146 8.22412L6.7585 8.21709L6.76553 8.21006L6.77256 8.20303L6.77958 8.196L6.7866 8.18898L6.79362 8.18197L6.80063 8.17495L6.80764 8.16794L6.81465 8.16094L6.82165 8.15393L6.82865 8.14693L6.83565 8.13994L6.84264 8.13295L6.84963 8.12596L6.85661 8.11898L6.86359 8.11199L6.87057 8.10502L6.87754 8.09804L6.88451 8.09107L6.89148 8.08411L6.89844 8.07714L6.9054 8.07018L6.91236 8.06323L6.91931 8.05628L6.92626 8.04933L6.9332 8.04239L6.94014 8.03544L6.94708 8.02851L6.95401 8.02157L6.96094 8.01464L6.96787 8.00772L6.97479 8.0008L6.98171 7.99388L6.98862 7.98696L6.99553 7.98005L7.00244 7.97314L7.00935 7.96624L7.01625 7.95934L7.02314 7.95244L7.03003 7.94555L7.03692 7.93866L7.04381 7.93178L7.05069 7.9249L7.05757 7.91802L7.06444 7.91115L7.07131 7.90428L7.07818 7.89741L7.08504 7.89055L7.0919 7.88369L7.09875 7.87683L7.1056 7.86998L7.11245 7.86314L7.11929 7.85629L7.12613 7.84945L7.13297 7.84262L7.1398 7.83579L7.14663 7.82896L7.15345 7.82213L7.16027 7.81531L7.16709 7.8085L7.1739 7.80168L7.18071 7.79487L7.18752 7.78807L7.19432 7.78127L7.20112 7.77447L7.20791 7.76768L7.2147 7.76089L7.22148 7.7541L7.22827 7.74732L7.23504 7.74054L7.24182 7.73377L7.24859 7.727L7.25535 7.72023L7.26212 7.71347L7.26887 7.70671L7.27563 7.69996L7.28238 7.69321L7.28913 7.68646L7.29587 7.67972L7.30261 7.67298L7.30934 7.66624L7.31607 7.65951L7.3228 7.65279L7.32952 7.64606L7.33624 7.63934L7.34296 7.63263L7.34967 7.62592L7.35638 7.61921L7.36308 7.61251L7.36978 7.60581L7.37647 7.59911L7.38316 7.59242L7.38985 7.58574L7.39653 7.57905L7.40321 7.57237L7.40989 7.5657L7.41656 7.55903L7.42323 7.55236L7.42989 7.5457L7.43655 7.53904L7.4432 7.53238L7.44985 7.52573L7.4565 7.51909L7.46314 7.51244L7.46978 7.5058L7.47642 7.49917L7.48305 7.49254L7.48967 7.48591L7.4963 7.47929L7.50291 7.47267L7.50953 7.46606L7.51614 7.45945L7.52274 7.45284L7.52935 7.44624L7.53594 7.43964L7.54254 7.43305L7.54913 7.42646L7.55571 7.41987L7.56229 7.41329L7.56887 7.40671L7.57545 7.40014L7.58201 7.39357L7.58858 7.38701L7.59514 7.38045L7.6017 7.37389L7.60825 7.36734L7.6148 7.36079L7.62134 7.35425L7.62788 7.34771L7.63442 7.34117L7.64095 7.33464L7.64747 7.32811L7.654 7.32159L7.66052 7.31507L7.66703 7.30855L7.67354 7.30204L7.68005 7.29554L7.68655 7.28904L7.69305 7.28254L7.69954 7.27605L7.70603 7.26956L7.71252 7.26307L7.719 7.25659L7.72547 7.25011L7.73194 7.24364L7.73841 7.23717L7.74488 7.23071L7.75134 7.22425L7.75779 7.21779L7.76424 7.21134L7.77069 7.2049L7.77713 7.19845L7.78357 7.19202L7.79 7.18558L7.79643 7.17915L7.80286 7.17273L7.80928 7.16631L7.81569 7.15989L7.82211 7.15348L7.82851 7.14707L7.83492 7.14067L7.84132 7.13427L7.84771 7.12787L7.8541 7.12148L7.86049 7.1151L7.86687 7.10872L7.87325 7.10234L7.87962 7.09596L7.88599 7.0896L7.89235 7.08323L7.89871 7.07687L7.90507 7.07052L7.91142 7.06416L7.91777 7.05782L7.92411 7.05148L7.93045 7.04514L7.93678 7.0388L7.94311 7.03248L7.94944 7.02615L7.95576 7.01983L7.96207 7.01351L7.96838 7.0072L7.97469 7.0009L7.98099 6.99459L7.98729 6.9883L7.99358 6.982L7.99987 6.97571L8.00616 6.96943L8.01244 6.96315L8.01871 6.95687L8.02498 6.9506L8.03125 6.94433L8.03751 6.93807L8.04377 6.93181L8.05002 6.92556L8.05627 6.91931L8.06252 6.91307L8.06876 6.90683L8.07499 6.90059L8.08122 6.89436L8.08745 6.88814L8.09367 6.88192L8.09989 6.8757L8.1061 6.86949L8.11231 6.86328L8.11851 6.85707L8.12471 6.85088L8.1309 6.84468L8.13709 6.83849L8.14328 6.83231L8.14946 6.82613L8.15564 6.81995L8.16181 6.81378L8.16797 6.80761L8.17414 6.80145L8.18029 6.79529L8.18645 6.78914L8.1926 6.78299L8.19874 6.77685L8.20488 6.77071L8.21101 6.76457L8.21714 6.75844L8.22327 6.75232L8.22939 6.7462L8.23551 6.74008L8.24162 6.73397L8.24772 6.72786L8.25383 6.72176L8.25992 6.71566L8.26602 6.70957L8.2721 6.70348L8.27819 6.6974L8.28427 6.69132L8.29034 6.68525L8.29641 6.67918L8.30247 6.67311L8.30853 6.66705L8.31459 6.661L8.32064 6.65495L8.32668 6.6489L8.33272 6.64286L8.33876 6.63682L8.34479 6.63079L8.35082 6.62477L8.35684 6.61874L8.36286 6.61273L8.36887 6.60671L8.37488 6.60071L8.38088 6.5947L8.38688 6.58871L8.39287 6.58271L8.39886 6.57672L8.40485 6.57074L8.41083 6.56476L8.4168 6.55879L8.42277 6.55282L8.42873 6.54685L8.43469 6.54089L8.44065 6.53494L8.4466 6.52899L8.45254 6.52304L8.45848 6.5171L8.46442 6.51117L8.47035 6.50523L8.47628 6.49931L8.4822 6.49339L8.48812 6.48747L8.49403 6.48156L8.49993 6.47565L8.50583 6.46975L8.51173 6.46385L8.51762 6.45796L8.52351 6.45207L8.52939 6.44619L8.53527 6.44032L8.54114 6.43444L8.54701 6.42857L8.55287 6.42271L8.55873 6.41685L8.56458 6.411L8.57043 6.40515L8.57628 6.39931L8.58211 6.39347L8.58795 6.38764L8.59377 6.38181L8.5996 6.37599L8.60542 6.37017L8.61123 6.36436L8.61704 6.35855L8.62284 6.35274L8.62864 6.34695L8.63443 6.34115L8.64022 6.33536L8.64601 6.32958L8.65178 6.3238L8.65756 6.31803L8.66333 6.31226L8.66909 6.3065L8.67485 6.30074L8.6806 6.29498L8.68635 6.28924L8.69209 6.28349L8.69783 6.27775L8.70357 6.27202L8.70929 6.26629L8.71502 6.26057L8.72074 6.25485L8.72645 6.24914L8.73216 6.24343L8.73786 6.23773L8.74356 6.23203L8.74925 6.22634L8.75494 6.22065L8.76062 6.21496L8.7663 6.20929L8.77197 6.20361L8.77764 6.19795L8.7833 6.19228L8.78896 6.18663L8.79461 6.18097L8.80026 6.17533L8.8059 6.16969L8.81154 6.16405L8.81717 6.15842L8.8228 6.15279L8.82842 6.14717L8.83403 6.14155L8.83964 6.13594L8.84525 6.13034L8.85085 6.12473L8.85645 6.11914L8.86204 6.11355L8.86762 6.10796L8.8732 6.10238L8.87878 6.09681L8.88435 6.09124L8.88991 6.08567L8.89547 6.08011L8.90103 6.07456L8.90657 6.06901L8.91212 6.06347L8.91766 6.05793L8.92319 6.0524L8.92872 6.04687L8.93424 6.04134L8.93976 6.03583L8.94527 6.03031L8.95078 6.02481L8.95628 6.01931L8.96178 6.01381L8.96727 6.00832L8.97275 6.00283L8.97823 5.99735L8.98371 5.99188L8.98918 5.98641L8.99465 5.98094L9.00011 5.97548L9.00556 5.97003L9.01101 5.96458L9.01645 5.95913L9.02189 5.95369L9.02732 5.94826L9.03275 5.94283L9.03817 5.93741L9.04359 5.93199L9.049 5.92658L9.05441 5.92118L9.05981 5.91578L9.06521 5.91038L9.0706 5.90499L9.07598 5.8996L9.08136 5.89422L9.08674 5.88885L9.09211 5.88348L9.09747 5.87812L9.10283 5.87276L9.10818 5.86741L9.11353 5.86206L9.11887 5.85672L9.12421 5.85138L9.12954 5.84605L9.13486 5.84072L9.14018 5.8354L9.1455 5.83009L9.15081 5.82478L9.15611 5.81947L9.16141 5.81418L9.1667 5.80888L9.17199 5.8036L9.17727 5.79831L9.18255 5.79304L9.18782 5.78776L9.19309 5.7825L9.19835 5.77724Z" fill="black"/>
</g>
<rect x="0.5" y="0.5" width="19" height="19" rx="2.5" stroke="#E6E6E6"/>
<defs>
<clipPath id="clip0_3739_28364">
<rect width="14" height="14" fill="white" transform="translate(3 3)"/>
</clipPath>
</defs>
</svg>
