<svg width="24" height="24" viewBox="0 0 24 24" fill="none" xmlns="http://www.w3.org/2000/svg">
<path fill-rule="evenodd" clip-rule="evenodd" d="M10.8671 5.00109C13.1128 2.75532 16.7522 2.75713 18.9975 5.00239C21.243 7.2479 21.243 10.8886 18.9975 13.1341L11.9264 20.2052C11.6335 20.4981 11.1587 20.4981 10.8658 20.2052C10.5729 19.9123 10.5729 19.4374 10.8658 19.1445L17.9368 12.0735C19.5966 10.4137 19.5966 7.72278 17.9368 6.06305C16.2769 4.40307 13.5872 4.40227 11.9277 6.06175L11.9187 6.07077L11.9097 6.07979L11.9007 6.08883L11.8916 6.09788L11.8826 6.10693L11.8735 6.116L11.8644 6.12507L11.8553 6.13415L11.8462 6.14325L11.8371 6.15235L11.828 6.16146L11.8189 6.17058L11.8098 6.17971L11.8006 6.18885L11.7915 6.198L11.7823 6.20716L11.7732 6.21632L11.764 6.2255L11.7548 6.23468L11.7456 6.24388L11.7364 6.25308L11.7272 6.2623L11.718 6.27152L11.7087 6.28075L11.6995 6.28999L11.6902 6.29924L11.681 6.3085L11.6717 6.31777L11.6624 6.32704L11.6532 6.33633L11.6439 6.34563L11.6346 6.35493L11.6252 6.36425L11.6159 6.37357L11.6066 6.3829L11.5972 6.39224L11.5879 6.40159L11.5785 6.41095L11.5692 6.42032L11.5598 6.4297L11.5504 6.43908L11.541 6.44848L11.5316 6.45788L11.5222 6.4673L11.5128 6.47672L11.5033 6.48615L11.4939 6.49559L11.4844 6.50504L11.475 6.5145L11.4655 6.52397L11.456 6.53345L11.4466 6.54293L11.4371 6.55243L11.4276 6.56193L11.418 6.57144L11.4085 6.58096L11.399 6.59049L11.3895 6.60003L11.3799 6.60958L11.3703 6.61914L11.3608 6.62871L11.3512 6.63828L11.3416 6.64786L11.332 6.65746L11.3224 6.66706L11.3128 6.67667L11.3032 6.68629L11.2936 6.69592L11.2839 6.70555L11.2743 6.7152L11.2646 6.72485L11.255 6.73451L11.2453 6.74419L11.2356 6.75387L11.2259 6.76356L11.2162 6.77326L11.2065 6.78296L11.1968 6.79268L11.1871 6.8024L11.1773 6.81214L11.1676 6.82188L11.1579 6.83163L11.1481 6.84139L11.1383 6.85116L11.1286 6.86093L11.1188 6.87072L11.109 6.88051L11.0992 6.89032L11.0894 6.90013L11.0795 6.90995L11.0697 6.91978L11.0599 6.92961L11.05 6.93946L11.0402 6.94931L11.0303 6.95918L11.0204 6.96905L11.0106 6.97893L11.0007 6.98882L10.9908 6.99871L10.9809 7.00862L10.9709 7.01854L10.961 7.02846L10.9511 7.03839L10.9412 7.04833L10.9312 7.05828L10.9212 7.06824L10.9113 7.0782L10.9013 7.08818L10.8913 7.09816L10.8813 7.10815L10.8713 7.11815L10.8613 7.12816L10.8513 7.13817L10.8413 7.1482L10.8313 7.15823L10.8212 7.16828L10.8112 7.17833L10.8011 7.18838L10.791 7.19845L10.781 7.20853L10.7709 7.21861L10.7608 7.2287L10.7507 7.2388L10.7406 7.24891L10.7305 7.25903L10.7203 7.26916L10.7102 7.27929L10.7001 7.28943L10.6899 7.29958L10.6797 7.30974L10.6696 7.31991L10.6594 7.33008L10.6492 7.34027L10.639 7.35046L10.6288 7.36066L10.6186 7.37087L10.6084 7.38109L10.5982 7.39131L10.5879 7.40155L10.5777 7.41179L10.5674 7.42204L10.5572 7.4323L10.5469 7.44256L10.5366 7.45284L10.5264 7.46312L10.5161 7.47341L10.5058 7.48371L10.4955 7.49402L10.4852 7.50433L10.4748 7.51465L10.4645 7.52499L10.4542 7.53533L10.4438 7.54567L10.4335 7.55603L10.4231 7.56639L10.4127 7.57677L10.4023 7.58715L10.392 7.59753L10.3816 7.60793L10.3711 7.61833L10.3607 7.62875L10.3503 7.63917L10.3399 7.6496L10.3295 7.66003L10.319 7.67048L10.3086 7.68093L10.2981 7.69139L10.2876 7.70186L10.2771 7.71234L10.2667 7.72282L10.2562 7.73331L10.2457 7.74381L10.2352 7.75432L10.2246 7.76484L10.2141 7.77536L10.2036 7.78589L10.1931 7.79643L10.1825 7.80698L10.1719 7.81754L10.1614 7.8281L10.1508 7.83867L10.1402 7.84925L10.1296 7.85984L10.119 7.87044L10.1084 7.88104L10.0978 7.89165L10.0872 7.90227L10.0766 7.91289L10.066 7.92353L10.0553 7.93417L10.0447 7.94482L10.034 7.95548L10.0233 7.96615L10.0127 7.97682L10.002 7.9875L9.9913 7.99819L9.9806 8.00889L9.96989 8.01959L9.95918 8.0303L9.94846 8.04102L9.93773 8.05175L9.927 8.06248L9.91626 8.07323L9.90551 8.08398L9.89475 8.09474L9.88398 8.1055L9.87321 8.11628L9.86243 8.12706L9.85164 8.13785L9.84084 8.14864L9.83004 8.15945L9.81922 8.17026L9.8084 8.18108L9.79758 8.19191L9.78674 8.20274L9.7759 8.21358L9.76505 8.22443L9.75419 8.23529L9.74333 8.24616L9.73246 8.25703L9.72158 8.26791L9.71069 8.2788L9.69979 8.28969L9.68889 8.30059L9.67798 8.3115L9.66706 8.32242L9.65614 8.33335L9.6452 8.34428L9.63426 8.35522L9.62332 8.36617L9.61236 8.37712L9.6014 8.38809L9.59043 8.39906L9.57945 8.41003L9.56847 8.42102L9.55747 8.43201L9.54647 8.44301L9.53547 8.45402L9.52445 8.46503L9.51343 8.47605L9.5024 8.48708L9.49136 8.49812L9.48032 8.50916L9.46927 8.52021L9.45821 8.53127L9.44714 8.54234L9.43607 8.55341L9.42499 8.56449L9.4139 8.57558L9.40281 8.58668L9.3917 8.59778L9.38059 8.60889L9.36948 8.62001L9.35835 8.63113L9.34722 8.64226L9.33608 8.6534L9.32494 8.66455L9.31378 8.6757L9.30262 8.68686L9.29145 8.69803L9.28028 8.70921L9.2691 8.72039L9.25791 8.73158L9.24671 8.74277L9.23551 8.75398L9.2243 8.76519L9.21308 8.77641L9.20185 8.78763L9.19062 8.79887L9.17938 8.8101L9.16813 8.82135L9.15688 8.83261L9.14562 8.84387L9.13435 8.85514L9.12307 8.86641L9.11179 8.87769L9.1005 8.88898L9.08921 8.90028L9.0779 8.91158L9.06659 8.92289L9.05527 8.93421L9.04395 8.94553L9.03262 8.95687L9.02128 8.9682L9.00993 8.97955L8.99858 8.9909L8.98722 9.00226L8.97585 9.01363L8.96448 9.025L8.9531 9.03638L8.94171 9.04777L8.93032 9.05917L8.91892 9.07057L8.90751 9.08198L8.89609 9.09339L8.88467 9.10481L8.87324 9.11624L8.86181 9.12768L8.85036 9.13912L8.83891 9.15057L8.82746 9.16203L8.81599 9.17349L8.80452 9.18496L8.79304 9.19644L8.78156 9.20792L8.77007 9.21942L8.75857 9.23091L8.74707 9.24242L8.73555 9.25393L8.72404 9.26545L8.71251 9.27697L8.70098 9.2885L8.68944 9.30004L8.6779 9.31159L8.66634 9.32314L8.65478 9.3347L8.64322 9.34627L8.63165 9.35784L8.62007 9.36942L8.60848 9.381L8.59689 9.39259L8.58529 9.40419L8.57368 9.4158L8.56207 9.42741L8.55045 9.43903L8.53883 9.45066L8.52719 9.46229L8.51555 9.47393L8.50391 9.48558L8.49226 9.49723L8.4806 9.50889L8.46893 9.52055L8.45726 9.53223L8.44558 9.5439L8.43389 9.55559L8.4222 9.56728L8.4105 9.57898L8.3988 9.59069L8.38709 9.6024L8.37537 9.61412L8.36364 9.62584L8.35191 9.63757L8.34017 9.64931L8.32843 9.66106L8.31668 9.67281L8.30492 9.68456L8.29316 9.69633L8.28139 9.7081L8.26961 9.71988L8.25783 9.73166L8.24604 9.74345L8.23424 9.75524L8.22244 9.76705L8.21063 9.77886L8.19881 9.79067L8.18699 9.80249L8.17516 9.81432L8.16333 9.82616L8.15148 9.838L8.13964 9.84985L8.12778 9.8617L8.11592 9.87356L8.10406 9.88543L8.09218 9.8973L8.0803 9.90918L8.06842 9.92107L8.05653 9.93296L8.04463 9.94486L8.03272 9.95676L8.02081 9.96867L8.00889 9.98059L7.99697 9.99251L7.98504 10.0044L7.97311 10.0164L7.96116 10.0283L7.94921 10.0403L7.93726 10.0522L7.9253 10.0642L7.91333 10.0762L7.90136 10.0881L7.88938 10.1001L7.87739 10.1121L7.8654 10.1241L7.8534 10.1361L7.8414 10.1481L7.82939 10.1601L7.81737 10.1721L7.80535 10.1841L7.79332 10.1962L7.78128 10.2082L7.76924 10.2202L7.75719 10.2323L7.74514 10.2443L7.73308 10.2564L7.72101 10.2685L7.70894 10.2805L7.69686 10.2926L7.68478 10.3047L7.67269 10.3168L7.66059 10.3289L7.64849 10.341L7.63638 10.3531L7.62427 10.3652L7.61215 10.3773L7.60002 10.3895L7.58789 10.4016L7.57575 10.4137L7.56361 10.4259L7.55146 10.438L7.5393 10.4502L7.52714 10.4623L7.51497 10.4745L7.5028 10.4867L7.49062 10.4989L7.47843 10.5111L7.46624 10.5232L7.45404 10.5354L7.44184 10.5476L7.42963 10.5599L7.41742 10.5721L7.40519 10.5843L7.39297 10.5965L7.38073 10.6087L7.3685 10.621L7.35625 10.6332L7.344 10.6455L7.33175 10.6577L7.31948 10.67L7.30722 10.6823L7.29494 10.6945L7.28266 10.7068L7.27038 10.7191L7.25809 10.7314L7.24579 10.7437L7.23349 10.756L7.22118 10.7683L7.20886 10.7806L7.19654 10.7929L7.18422 10.8053L7.17189 10.8176L7.15955 10.8299L7.14721 10.8423L7.13486 10.8546L7.12251 10.867L7.11015 10.8793L7.09778 10.8917L7.08541 10.9041L7.07304 10.9164L7.06065 10.9288L7.04827 10.9412L7.03587 10.9536L7.02347 10.966L7.01107 10.9784L6.99866 10.9908L6.98624 11.0032L6.97382 11.0157L6.96139 11.0281L6.94896 11.0405L6.93652 11.053L6.92408 11.0654L6.91163 11.0779L6.89918 11.0903L6.88672 11.1028L6.87425 11.1152L6.86178 11.1277L6.8493 11.1402L6.83682 11.1527L6.82433 11.1652L6.81184 11.1776L6.79934 11.1901L6.78684 11.2026L6.77433 11.2152L6.76181 11.2277L6.74929 11.2402L6.73677 11.2527L6.72424 11.2652L6.7117 11.2778L6.69916 11.2903L6.68661 11.3029L6.67406 11.3154L6.6615 11.328L6.64894 11.3405L6.63637 11.3531L6.62379 11.3657L6.61121 11.3783L6.59863 11.3909L6.58604 11.4034L6.57344 11.416L6.56084 11.4286L6.54824 11.4412L6.53563 11.4539L6.52301 11.4665L6.51039 11.4791L6.49776 11.4917L6.48513 11.5044L6.47249 11.517L6.45985 11.5296L6.4472 11.5423L6.43455 11.5549L6.42189 11.5676L6.40922 11.5803L6.39656 11.5929L6.38388 11.6056L6.3712 11.6183L6.35852 11.631L6.34583 11.6437L6.33313 11.6564L6.32043 11.6691L6.30773 11.6818L6.29502 11.6945L6.2823 11.7072L6.26958 11.7199L4.50182 13.4877C3.42787 14.5616 3.42787 16.3028 4.50182 17.3768C5.57576 18.4507 7.31696 18.4507 8.3909 17.3768L10.1587 15.609L15.1084 10.6592C15.5966 10.1711 15.5966 9.37963 15.1084 8.89147C14.6203 8.40332 13.8288 8.40332 13.3407 8.89147L7.33024 14.9019C7.03735 15.1948 6.56248 15.1948 6.26958 14.9019C5.97669 14.609 5.97669 14.1341 6.26958 13.8412L12.28 7.83081C13.3539 6.75687 15.0951 6.75687 16.1691 7.83081C17.243 8.90476 17.243 10.646 16.1691 11.7199L11.2193 16.6696L9.45156 18.4374C7.79184 20.0971 5.10088 20.0971 3.44116 18.4374C1.78143 16.7777 1.78143 14.0867 3.44116 12.427L5.20892 10.6592L5.22164 10.6465L5.23436 10.6338L5.24707 10.6211L5.25977 10.6084L5.27247 10.5957L5.28517 10.583L5.29786 10.5703L5.31054 10.5576L5.32322 10.5449L5.3359 10.5323L5.34856 10.5196L5.36123 10.5069L5.37389 10.4943L5.38654 10.4816L5.39919 10.469L5.41183 10.4563L5.42447 10.4437L5.4371 10.4311L5.44973 10.4184L5.46235 10.4058L5.47497 10.3932L5.48758 10.3806L5.50018 10.368L5.51278 10.3554L5.52538 10.3428L5.53797 10.3302L5.55055 10.3176L5.56313 10.305L5.57571 10.2925L5.58828 10.2799L5.60084 10.2673L5.6134 10.2548L5.62595 10.2422L5.6385 10.2297L5.65104 10.2171L5.66358 10.2046L5.67611 10.1921L5.68863 10.1795L5.70115 10.167L5.71367 10.1545L5.72618 10.142L5.73868 10.1295L5.75118 10.117L5.76367 10.1045L5.77616 10.092L5.78864 10.0795L5.80112 10.067L5.81359 10.0546L5.82606 10.0421L5.83852 10.0296L5.85097 10.0172L5.86342 10.0047L5.87586 9.9923L5.8883 9.97986L5.90073 9.96743L5.91316 9.955L5.92558 9.94258L5.938 9.93017L5.95041 9.91776L5.96281 9.90535L5.97521 9.89295L5.98761 9.88056L5.99999 9.86817L6.01238 9.85579L6.02475 9.84341L6.03712 9.83104L6.04949 9.81868L6.06185 9.80632L6.0742 9.79396L6.08655 9.78161L6.09889 9.76927L6.11123 9.75694L6.12356 9.7446L6.13588 9.73228L6.1482 9.71996L6.16052 9.70765L6.17283 9.69534L6.18513 9.68303L6.19743 9.67074L6.20972 9.65845L6.222 9.64616L6.23428 9.63388L6.24656 9.62161L6.25882 9.60934L6.27109 9.59708L6.28334 9.58482L6.29559 9.57257L6.30784 9.56033L6.32007 9.54809L6.33231 9.53586L6.34453 9.52363L6.35676 9.51141L6.36897 9.49919L6.38118 9.48698L6.39338 9.47478L6.40558 9.46258L6.41777 9.45039L6.42996 9.43821L6.44214 9.42603L6.45431 9.41385L6.46648 9.40168L6.47864 9.38952L6.4908 9.37737L6.50295 9.36522L6.51509 9.35307L6.52723 9.34093L6.53936 9.3288L6.55149 9.31667L6.56361 9.30455L6.57572 9.29244L6.58783 9.28033L6.59993 9.26823L6.61203 9.25613L6.62412 9.24404L6.6362 9.23196L6.64828 9.21988L6.66035 9.20781L6.67242 9.19574L6.68448 9.18369L6.69653 9.17163L6.70858 9.15958L6.72062 9.14754L6.73266 9.13551L6.74469 9.12348L6.75671 9.11146L6.76873 9.09944L6.78074 9.08743L6.79274 9.07542L6.80474 9.06342L6.81673 9.05143L6.82872 9.03945L6.8407 9.02747L6.85267 9.01549L6.86464 9.00353L6.8766 8.99157L6.88855 8.97961L6.9005 8.96766L6.91244 8.95572L6.92438 8.94378L6.93631 8.93185L6.94823 8.91993L6.96015 8.90801L6.97206 8.8961L6.98397 8.8842L6.99587 8.8723L7.00776 8.86041L7.01964 8.84852L7.03152 8.83664L7.0434 8.82477L7.05526 8.8129L7.06712 8.80104L7.07898 8.78919L7.09082 8.77734L7.10267 8.7655L7.1145 8.75366L7.12633 8.74183L7.13815 8.73001L7.14997 8.7182L7.16178 8.70639L7.17358 8.69458L7.18538 8.68279L7.19717 8.671L7.20895 8.65922L7.22073 8.64744L7.2325 8.63567L7.24426 8.6239L7.25602 8.61215L7.26777 8.60039L7.27951 8.58865L7.29125 8.57691L7.30298 8.56518L7.31471 8.55346L7.32643 8.54174L7.33814 8.53003L7.34984 8.51832L7.36154 8.50662L7.37323 8.49493L7.38492 8.48324L7.3966 8.47157L7.40827 8.45989L7.41994 8.44823L7.4316 8.43657L7.44325 8.42492L7.45489 8.41327L7.46653 8.40163L7.47817 8.39L7.48979 8.37837L7.50141 8.36675L7.51302 8.35514L7.52463 8.34353L7.53623 8.33193L7.54782 8.32034L7.55941 8.30876L7.57099 8.29718L7.58256 8.28561L7.59412 8.27404L7.60568 8.26248L7.61724 8.25093L7.62878 8.23938L7.64032 8.22784L7.65185 8.21631L7.66338 8.20479L7.67489 8.19327L7.68641 8.18176L7.69791 8.17025L7.70941 8.15876L7.7209 8.14726L7.73238 8.13578L7.74386 8.1243L7.75533 8.11283L7.7668 8.10137L7.77825 8.08991L7.7897 8.07846L7.80115 8.06702L7.81258 8.05558L7.82401 8.04415L7.83543 8.03273L7.84685 8.02132L7.85826 8.00991L7.86966 7.99851L7.88105 7.98711L7.89244 7.97572L7.90382 7.96434L7.91519 7.95297L7.92656 7.9416L7.93792 7.93024L7.94927 7.91889L7.96062 7.90754L7.97196 7.89621L7.98329 7.88487L7.99461 7.87355L8.00593 7.86223L8.01724 7.85092L8.02855 7.83962L8.03984 7.82832L8.05113 7.81703L8.06241 7.80575L8.07369 7.79448L8.08496 7.78321L8.09622 7.77195L8.10747 7.76069L8.11872 7.74944L8.12996 7.73821L8.14119 7.72697L8.15242 7.71575L8.16364 7.70453L8.17485 7.69332L8.18605 7.68211L8.19725 7.67092L8.20844 7.65973L8.21962 7.64855L8.23079 7.63737L8.24196 7.6262L8.25312 7.61504L8.26428 7.60389L8.27542 7.59274L8.28656 7.5816L8.29769 7.57047L8.30882 7.55935L8.31993 7.54823L8.33104 7.53712L8.34215 7.52602L8.35324 7.51492L8.36433 7.50383L8.37541 7.49275L8.38648 7.48168L8.39755 7.47061L8.40861 7.45955L8.41966 7.4485L8.4307 7.43746L8.44174 7.42642L8.45277 7.41539L8.46379 7.40437L8.47481 7.39336L8.48581 7.38235L8.49681 7.37135L8.50781 7.36036L8.51879 7.34937L8.52977 7.3384L8.54074 7.32743L8.5517 7.31646L8.56266 7.30551L8.5736 7.29456L8.58454 7.28362L8.59548 7.27269L8.6064 7.26176L8.61732 7.25084L8.62823 7.23993L8.63913 7.22903L8.65003 7.21814L8.66092 7.20725L8.6718 7.19637L8.68267 7.1855L8.69353 7.17463L8.70439 7.16377L8.71524 7.15292L8.72608 7.14208L8.73692 7.13125L8.74774 7.12042L8.75856 7.1096L8.76938 7.09879L8.78018 7.08798L8.79098 7.07719L8.80177 7.0664L8.81255 7.05562L8.82332 7.04484L8.83409 7.03408L8.84485 7.02332L8.8556 7.01257L8.86634 7.00182L8.87707 6.99109L8.8878 6.98036L8.89852 6.96964L8.90923 6.95893L8.91994 6.94823L8.93063 6.93753L8.94132 6.92684L8.95201 6.91616L8.96268 6.90549L8.97334 6.89482L8.984 6.88416L8.99465 6.87351L9.00529 6.86287L9.01593 6.85223L9.02656 6.84161L9.03717 6.83099L9.04779 6.82038L9.05839 6.80978L9.06898 6.79918L9.07957 6.78859L9.09015 6.77801L9.10072 6.76744L9.11129 6.75688L9.12184 6.74632L9.13239 6.73577L9.14293 6.72523L9.15346 6.7147L9.16399 6.70418L9.1745 6.69366L9.18501 6.68315L9.19551 6.67265L9.206 6.66216L9.21649 6.65168L9.22697 6.6412L9.23743 6.63073L9.24789 6.62027L9.25835 6.60982L9.26879 6.59937L9.27923 6.58894L9.28966 6.57851L9.30008 6.56809L9.31049 6.55767L9.32089 6.54727L9.33129 6.53687L9.34168 6.52649L9.35206 6.51611L9.36243 6.50573L9.3728 6.49537L9.38315 6.48501L9.3935 6.47467L9.40384 6.46433L9.41417 6.45399L9.42449 6.44367L9.43481 6.43336L9.44512 6.42305L9.45541 6.41275L9.46571 6.40246L9.47599 6.39218L9.48626 6.3819L9.49653 6.37163L9.50679 6.36138L9.51704 6.35113L9.52728 6.34089L9.53751 6.33065L9.54774 6.32043L9.55795 6.31021L9.56816 6.3L9.57836 6.2898L9.58856 6.27961L9.59874 6.26942L9.60891 6.25925L9.61908 6.24908L9.62924 6.23892L9.63939 6.22877L9.64953 6.21863L9.65967 6.2085L9.66979 6.19837L9.67991 6.18825L9.69002 6.17814L9.70012 6.16804L9.71021 6.15795L9.7203 6.14787L9.73037 6.13779L9.74044 6.12772L9.7505 6.11767L9.76055 6.10762L9.77059 6.09757L9.78062 6.08754L9.79065 6.07751L9.80067 6.0675L9.81067 6.05749L9.82067 6.04749L9.83066 6.0375L9.84065 6.02752L9.85062 6.01754L9.86059 6.00758L9.87054 5.99762L9.88049 5.98767L9.89043 5.97773L9.90037 5.9678L9.91029 5.95788L9.9202 5.94796L9.93011 5.93805L9.94001 5.92816L9.9499 5.91827L9.95978 5.90839L9.96965 5.89852L9.97951 5.88865L9.98937 5.8788L9.99921 5.86895L10.009 5.85912L10.0189 5.84929L10.0287 5.83947L10.0385 5.82966L10.0483 5.81985L10.0581 5.81006L10.0679 5.80027L10.0777 5.7905L10.0874 5.78073L10.0972 5.77097L10.1069 5.76122L10.1167 5.75148L10.1264 5.74174L10.1361 5.73202L10.1459 5.7223L10.1556 5.7126L10.1653 5.7029L10.175 5.69321L10.1846 5.68353L10.1943 5.67385L10.204 5.66419L10.2136 5.65454L10.2233 5.64489L10.2329 5.63525L10.2425 5.62563L10.2522 5.61601L10.2618 5.6064L10.2714 5.5968L10.281 5.5872L10.2905 5.57762L10.3001 5.56804L10.3097 5.55848L10.3192 5.54892L10.3288 5.53937L10.3383 5.52983L10.3479 5.5203L10.3574 5.51078L10.3669 5.50127L10.3764 5.49177L10.3859 5.48227L10.3954 5.47279L10.4049 5.46331L10.4143 5.45384L10.4238 5.44438L10.4332 5.43493L10.4427 5.42549L10.4521 5.41606L10.4615 5.40664L10.4709 5.39722L10.4803 5.38782L10.4897 5.37842L10.4991 5.36904L10.5085 5.35966L10.5179 5.35029L10.5272 5.34093L10.5366 5.33158L10.5459 5.32224L10.5553 5.31291L10.5646 5.30359L10.5739 5.29427L10.5832 5.28497L10.5925 5.27567L10.6018 5.26638L10.6111 5.25711L10.6203 5.24784L10.6296 5.23858L10.6388 5.22933L10.6481 5.22009L10.6573 5.21086L10.6665 5.20164L10.6757 5.19242L10.6849 5.18322L10.6941 5.17402L10.7033 5.16484L10.7125 5.15566L10.7217 5.14649L10.7308 5.13734L10.74 5.12819L10.7491 5.11905L10.7582 5.10992L10.7674 5.1008L10.7765 5.09169L10.7856 5.08259L10.7947 5.07349L10.8038 5.06441L10.8128 5.05534L10.8219 5.04627L10.8309 5.03722L10.84 5.02817L10.849 5.01913L10.8581 5.01011L10.8671 5.00109Z" fill="#3B3B3B"/>
</svg>
