<svg width="24" height="24" viewBox="0 0 24 24" fill="none" xmlns="http://www.w3.org/2000/svg">
<path d="M2.81086 16.2079H5.07041C5.12564 16.2079 5.17041 16.2526 5.17041 16.3079V18.4779C5.17041 18.5289 5.20873 18.5717 5.25937 18.5773L7.44101 18.8197C7.49165 18.8253 7.52996 18.8681 7.52996 18.9191V21.4513M2.81086 16.2079L2.15543 19.3539M2.81086 16.2079L15.75 3.5397M7.52996 21.4513L4.51498 21.9757M7.52996 21.4513L20.4599 8.24962M2.15543 19.3539L1.53003 22.3559C1.51563 22.425 1.57548 22.4869 1.64506 22.4748L4.51498 21.9757M2.15543 19.3539L3.5804 20.3903C3.5916 20.3984 3.60098 20.4088 3.60796 20.4208L4.51498 21.9757M15.75 3.5397L17.7626 1.56922C17.8018 1.53087 17.8645 1.53121 17.9033 1.56997L22.43 6.09669C22.4688 6.13545 22.4691 6.1982 22.4308 6.23737L20.4599 8.24962M15.75 3.5397L20.4599 8.24962" stroke="black" stroke-width="0.8"/>
</svg>
