<svg width="24" height="24" viewBox="0 0 24 24" fill="none" xmlns="http://www.w3.org/2000/svg">
<path fill-rule="evenodd" clip-rule="evenodd" d="M5.5 4H5V4.5V20.1868V20.6868H5.5H11.9166H12.4166V20.1868V12.8322L14.4177 14.8333L15.1248 14.1262L12.2713 11.2727L11.9178 10.9191L11.5642 11.2727L8.71071 14.1262L9.41781 14.8333L11.4166 12.8345V19.6868H6V5H13.5522V8.78025V9.28025H14.0522H17.8333V19.6868H14.1427V20.6868H18.3333H18.8333V20.1868V8.06314V7.85603L18.6868 7.70959L15.1237 4.14645L14.9772 4H14.9764H14.7701H14.7693H14.0522H13.5522H5.5ZM14.5622 5H14.5522V8.28025H17.8324V8.27025L14.5622 5Z" fill="#A1A1A1"/>
</svg>
