<svg width="14" height="19" viewBox="0 0 14 19" fill="none" xmlns="http://www.w3.org/2000/svg">
<path id="&#60;" d="M13.0021 19C12.826 19 12.5912 18.8865 12.4444 18.8108L0.851153 11.2039C0.264151 10.8254 0 10.2956 0 9.57653V9.42515C0 8.70609 0.264151 8.17626 0.851153 7.79781L12.4444 0.19091C12.6205 0.077376 12.826 0.00168333 13.0608 0.00168333C13.5891 -0.0361614 14 0.569363 14 1.28842C14 1.89395 13.7358 2.31024 13.3249 2.57516L2.55346 9.463L13.3249 16.4265C13.7358 16.6914 14 17.1077 14 17.7133C14 18.4323 13.5891 19 13.0021 19Z" fill="white"/>
</svg>
