<svg width="14" height="11" viewBox="0 0 14 11" fill="none" xmlns="http://www.w3.org/2000/svg">
<path d="M2.23402 5.23746C1.85894 4.83207 1.22626 4.80749 0.82087 5.18257C0.415483 5.55764 0.390909 6.19033 0.765982 6.59572L2.23402 5.23746ZM4.89249 9.58325L4.15847 10.2624C4.34794 10.4672 4.61434 10.5835 4.89332 10.5833C5.17231 10.583 5.43851 10.4663 5.62764 10.2612L4.89249 9.58325ZM13.2352 2.01115C13.6095 1.60514 13.5839 0.972494 13.1779 0.598099C12.7719 0.223704 12.1392 0.249337 11.7648 0.655351L13.2352 2.01115ZM0.765982 6.59572L4.15847 10.2624L5.6265 8.90412L2.23402 5.23746L0.765982 6.59572ZM5.62764 10.2612L13.2352 2.01115L11.7648 0.655351L4.15733 8.90535L5.62764 10.2612Z" fill="white"/>
</svg>
